<svg xmlns="http://www.w3.org/2000/svg" width="116.667" height="25" fill="#0D76D6" viewBox="0 0 70 15"><path d="M7.35 6.583c0-3.54-.605-5.007-2.268-5.007-1.467 0-2.208 1.029-2.208 4.599 0 3.525.574 4.977 2.268 4.977 1.498 0 2.208-1.013 2.208-4.569M0 6.493C0 2.513 2.737.94 5.173.94c2.601 0 5.051 1.558 5.051 5.31 0 4.009-2.737 5.537-5.173 5.537-2.6 0-5.051-1.664-5.051-5.295m14.953 4.69c-.514 0-.923-.228-1.195-.545V5.13c.242-.09.62-.272 1.225-.272 1.15 0 1.8.756 1.8 2.92 0 2.768-.635 3.403-1.83 3.403m1.346-7.64c-1.059 0-1.906.5-2.541 1.045h-.076l.03-.906a.135.135 0 0 0-.15-.139l-2.1.238a.123.123 0 0 0-.109.122v10.955c0 .073.064.13.137.122l2.159-.244a.123.123 0 0 0 .109-.122v-2.054c0-.53-.015-.923-.015-.923.333.091.832.152 1.15.152 2.525 0 4.37-1.377 4.37-4.524 0-2.768-1.527-3.721-2.964-3.721m6.243 3.207 2.586-.136c0-1.83-.241-2.496-1.149-2.496-.771 0-1.376.726-1.437 2.632m-2.39.892c0-2.632 1.951-4.1 3.948-4.1 2.063 0 3.357 1.02 3.431 3.687a.093.093 0 0 1-.093.096h-4.8a.094.094 0 0 0-.094.095c.068 2.403 1.001 3.067 2.539 3.067a4.49 4.49 0 0 0 1.862-.4.091.091 0 0 1 .107.025l.201.236c.03.036.03.089-.002.123-.552.582-1.675 1.317-3.151 1.317-2.632 0-3.948-1.574-3.948-4.146m13.596-4.1c-1.104 0-2.102.5-2.903 1.075h-.06l.029-.954a.12.12 0 0 0-.133-.123l-2.117.24a.123.123 0 0 0-.11.122v7.584c0 .066.055.12.12.12h2.166a.12.12 0 0 0 .12-.12v-6.34c.332-.075.877-.196 1.406-.196.711 0 1.044.287 1.044 1.21v5.326c0 .066.054.12.12.12h2.18a.12.12 0 0 0 .12-.12V5.57c0-1.362-.696-2.027-1.982-2.027m8.47 6.717c-.242.09-.65.333-1.27.333-1.15 0-1.754-.772-1.754-3.147 0-2.497.756-3.298 1.845-3.298.56 0 .922.317 1.18.635v5.477zm2.405-8.2c0-.782.027-1.5.04-1.795a.142.142 0 0 0-.154-.148L42.33.364a.123.123 0 0 0-.113.123v2.118c0 .544.03 1.104.03 1.104a4.379 4.379 0 0 0-1.149-.166c-2.36 0-4.386 1.255-4.386 4.402 0 2.753 1.467 3.843 2.964 3.843 1.06 0 1.906-.424 2.557-.984h.06l-.03.835a.142.142 0 0 0 .162.147l2.075-.232c.07-.01.122-.07.122-.14V2.06zm6.674 5.703c0-3.056-.59-3.63-1.618-3.63-.953 0-1.513.696-1.513 3.298 0 3.101.5 3.766 1.603 3.766.908 0 1.528-.529 1.528-3.434m-5.672-.075c0-2.905 2.057-4.145 4.1-4.145 2.192 0 4.113 1.316 4.113 4.07 0 2.904-2.027 4.175-4.114 4.175-2.193 0-4.099-1.332-4.099-4.1m14.693.075c0-3.056-.59-3.63-1.618-3.63-.953 0-1.513.696-1.513 3.298 0 3.101.5 3.766 1.603 3.766.908 0 1.528-.529 1.528-3.434m-5.672-.075c0-2.905 2.057-4.145 4.099-4.145 2.193 0 4.114 1.316 4.114 4.07 0 2.904-2.027 4.175-4.114 4.175-2.193 0-4.099-1.332-4.099-4.1M68.48 3.543c-.878 0-1.74.665-2.208 1.165h-.06l.028-1.017a.142.142 0 0 0-.158-.146l-2.09.235a.123.123 0 0 0-.11.122v7.562c0 .078.064.142.142.142h2.12a.143.143 0 0 0 .143-.142V5.328c.211-.197.56-.394.831-.394.137 0 .227.03.318.197.287.47.515.74 1.165.74.59 0 1.117-.468 1.117-1.194 0-.741-.512-1.134-1.238-1.134"/></svg>